<svg width="829" height="70" viewBox="0 0 829 70" fill="none" xmlns="http://www.w3.org/2000/svg">
<path d="M187.869 19.9091H194.318L202.955 40.9886H203.295L211.932 19.9091H218.381V49H213.324V29.0142H213.054L205.014 48.9148H201.236L193.196 28.9716H192.926V49H187.869V19.9091ZM224.119 49V19.9091H243.04V24.3267H229.389V32.2244H242.06V36.642H229.389V44.5824H243.153V49H224.119ZM247.138 24.3267V19.9091H270.348V24.3267H261.357V49H256.129V24.3267H247.138ZM274.822 49V19.9091H285.732C287.966 19.9091 289.841 20.2973 291.357 21.0739C292.881 21.8504 294.032 22.9394 294.808 24.3409C295.594 25.733 295.987 27.357 295.987 29.2131C295.987 31.0786 295.589 32.6979 294.794 34.071C294.008 35.4347 292.848 36.4905 291.314 37.2386C289.78 37.9773 287.895 38.3466 285.661 38.3466H277.891V33.9716H284.95C286.257 33.9716 287.327 33.7917 288.161 33.4318C288.994 33.0625 289.609 32.5275 290.007 31.8267C290.414 31.1165 290.618 30.2453 290.618 29.2131C290.618 28.1809 290.414 27.3002 290.007 26.571C289.6 25.8324 288.98 25.2737 288.146 24.8949C287.313 24.5066 286.238 24.3125 284.922 24.3125H280.092V49H274.822ZM289.851 35.8182L297.053 49H291.172L284.098 35.8182H289.851ZM326.832 34.4545C326.832 37.589 326.245 40.2737 325.071 42.5085C323.906 44.7339 322.315 46.4384 320.298 47.6222C318.291 48.8059 316.013 49.3977 313.466 49.3977C310.919 49.3977 308.636 48.8059 306.619 47.6222C304.612 46.429 303.021 44.7197 301.847 42.4943C300.682 40.2595 300.099 37.5795 300.099 34.4545C300.099 31.3201 300.682 28.6402 301.847 26.4148C303.021 24.1799 304.612 22.4706 306.619 21.2869C308.636 20.1032 310.919 19.5114 313.466 19.5114C316.013 19.5114 318.291 20.1032 320.298 21.2869C322.315 22.4706 323.906 24.1799 325.071 26.4148C326.245 28.6402 326.832 31.3201 326.832 34.4545ZM321.534 34.4545C321.534 32.2481 321.188 30.3873 320.497 28.8722C319.815 27.3475 318.868 26.197 317.656 25.4205C316.444 24.6345 315.047 24.2415 313.466 24.2415C311.884 24.2415 310.488 24.6345 309.276 25.4205C308.063 26.197 307.112 27.3475 306.42 28.8722C305.739 30.3873 305.398 32.2481 305.398 34.4545C305.398 36.661 305.739 38.5265 306.42 40.0511C307.112 41.5663 308.063 42.7169 309.276 43.5028C310.488 44.2794 311.884 44.6676 313.466 44.6676C315.047 44.6676 316.444 44.2794 317.656 43.5028C318.868 42.7169 319.815 41.5663 320.497 40.0511C321.188 38.5265 321.534 36.661 321.534 34.4545ZM345.472 49H339.847L350.089 19.9091H356.594L366.85 49H361.225L353.455 25.875H353.228L345.472 49ZM345.657 37.5938H360.998V41.8267H345.657V37.5938ZM394.588 19.9091V49H389.901L376.193 29.1847H375.952V49H370.682V19.9091H375.398L389.091 39.7386H389.347V19.9091H394.588ZM410.188 49H400.33V19.9091H410.387C413.275 19.9091 415.756 20.4915 417.83 21.6562C419.914 22.8116 421.514 24.4735 422.631 26.642C423.749 28.8106 424.308 31.4053 424.308 34.4261C424.308 37.4564 423.744 40.0606 422.617 42.2386C421.5 44.4167 419.885 46.0881 417.773 47.2528C415.671 48.4176 413.143 49 410.188 49ZM405.6 44.4403H409.933C411.959 44.4403 413.649 44.071 415.004 43.3324C416.358 42.5843 417.376 41.4716 418.058 39.9943C418.739 38.5076 419.08 36.6515 419.08 34.4261C419.08 32.2008 418.739 30.3542 418.058 28.8864C417.376 27.4091 416.367 26.3059 415.032 25.5767C413.706 24.8381 412.058 24.4688 410.089 24.4688H405.6V44.4403ZM439.237 49V19.9091H444.506V44.5824H457.319V49H439.237ZM486.754 34.4545C486.754 37.589 486.167 40.2737 484.993 42.5085C483.828 44.7339 482.237 46.4384 480.22 47.6222C478.213 48.8059 475.935 49.3977 473.388 49.3977C470.84 49.3977 468.558 48.8059 466.541 47.6222C464.534 46.429 462.943 44.7197 461.768 42.4943C460.604 40.2595 460.021 37.5795 460.021 34.4545C460.021 31.3201 460.604 28.6402 461.768 26.4148C462.943 24.1799 464.534 22.4706 466.541 21.2869C468.558 20.1032 470.84 19.5114 473.388 19.5114C475.935 19.5114 478.213 20.1032 480.22 21.2869C482.237 22.4706 483.828 24.1799 484.993 26.4148C486.167 28.6402 486.754 31.3201 486.754 34.4545ZM481.456 34.4545C481.456 32.2481 481.11 30.3873 480.419 28.8722C479.737 27.3475 478.79 26.197 477.578 25.4205C476.366 24.6345 474.969 24.2415 473.388 24.2415C471.806 24.2415 470.41 24.6345 469.197 25.4205C467.985 26.197 467.034 27.3475 466.342 28.8722C465.661 30.3873 465.32 32.2481 465.32 34.4545C465.32 36.661 465.661 38.5265 466.342 40.0511C467.034 41.5663 467.985 42.7169 469.197 43.5028C470.41 44.2794 471.806 44.6676 473.388 44.6676C474.969 44.6676 476.366 44.2794 477.578 43.5028C478.79 42.7169 479.737 41.5663 480.419 40.0511C481.11 38.5265 481.456 36.661 481.456 34.4545ZM516.637 29.7244H511.325C511.173 28.8532 510.894 28.0814 510.487 27.4091C510.079 26.7273 509.573 26.1496 508.967 25.6761C508.361 25.2027 507.669 24.8475 506.893 24.6108C506.126 24.3646 505.297 24.2415 504.407 24.2415C502.826 24.2415 501.424 24.6392 500.202 25.4347C498.981 26.2206 498.024 27.3759 497.333 28.9006C496.642 30.4157 496.296 32.267 496.296 34.4545C496.296 36.6799 496.642 38.5549 497.333 40.0795C498.034 41.5947 498.99 42.7405 500.202 43.517C501.424 44.2841 502.821 44.6676 504.393 44.6676C505.264 44.6676 506.078 44.554 506.836 44.3267C507.603 44.09 508.29 43.7443 508.896 43.2898C509.511 42.8352 510.027 42.2765 510.444 41.6136C510.87 40.9508 511.164 40.1932 511.325 39.3409L516.637 39.3693C516.438 40.7519 516.007 42.0492 515.344 43.2614C514.691 44.4735 513.834 45.5436 512.773 46.4716C511.713 47.3902 510.472 48.1098 509.052 48.6307C507.631 49.142 506.055 49.3977 504.322 49.3977C501.765 49.3977 499.483 48.8059 497.475 47.6222C495.468 46.4384 493.886 44.7292 492.731 42.4943C491.576 40.2595 490.998 37.5795 490.998 34.4545C490.998 31.3201 491.58 28.6402 492.745 26.4148C493.91 24.1799 495.496 22.4706 497.504 21.2869C499.511 20.1032 501.784 19.5114 504.322 19.5114C505.941 19.5114 507.447 19.7386 508.839 20.1932C510.231 20.6477 511.471 21.3153 512.56 22.196C513.649 23.0672 514.544 24.1373 515.245 25.4062C515.955 26.6657 516.419 28.1051 516.637 29.7244ZM524.847 49H519.222L529.464 19.9091H535.969L546.225 49H540.6L532.83 25.875H532.603L524.847 49ZM525.032 37.5938H540.373V41.8267H525.032V37.5938ZM550.057 49V19.9091H555.327V44.5824H568.139V49H550.057ZM581.357 24.3267V19.9091H604.567V24.3267H595.575V49H590.348V24.3267H581.357ZM609.041 49V19.9091H619.95C622.185 19.9091 624.06 20.2973 625.575 21.0739C627.1 21.8504 628.25 22.9394 629.027 24.3409C629.813 25.733 630.206 27.357 630.206 29.2131C630.206 31.0786 629.808 32.6979 629.013 34.071C628.227 35.4347 627.067 36.4905 625.533 37.2386C623.999 37.9773 622.114 38.3466 619.879 38.3466H612.109V33.9716H619.169C620.476 33.9716 621.546 33.7917 622.379 33.4318C623.213 33.0625 623.828 32.5275 624.226 31.8267C624.633 31.1165 624.837 30.2453 624.837 29.2131C624.837 28.1809 624.633 27.3002 624.226 26.571C623.819 25.8324 623.198 25.2737 622.365 24.8949C621.532 24.5066 620.457 24.3125 619.141 24.3125H614.311V49H609.041ZM624.07 35.8182L631.271 49H625.391L618.317 35.8182H624.07ZM638.793 49H633.168L643.409 19.9091H649.915L660.17 49H654.545L646.776 25.875H646.548L638.793 49ZM638.977 37.5938H654.318V41.8267H638.977V37.5938ZM669.272 19.9091V49H664.002V19.9091H669.272ZM698.885 19.9091V49H694.197L680.49 29.1847H680.249V49H674.979V19.9091H679.695L693.388 39.7386H693.643V19.9091H698.885ZM720.437 27.9062C720.304 26.6657 719.746 25.6998 718.761 25.0085C717.785 24.3172 716.516 23.9716 714.954 23.9716C713.855 23.9716 712.913 24.1373 712.127 24.4688C711.341 24.8002 710.74 25.25 710.323 25.8182C709.906 26.3864 709.693 27.035 709.684 27.7642C709.684 28.3703 709.821 28.8958 710.096 29.3409C710.38 29.786 710.763 30.1648 711.246 30.4773C711.729 30.7803 712.264 31.036 712.852 31.2443C713.439 31.4527 714.031 31.6278 714.627 31.7699L717.354 32.4517C718.453 32.7074 719.509 33.053 720.522 33.4886C721.545 33.9242 722.459 34.4735 723.263 35.1364C724.078 35.7992 724.722 36.5994 725.195 37.5369C725.669 38.4744 725.906 39.5729 725.906 40.8324C725.906 42.5369 725.47 44.0379 724.599 45.3352C723.728 46.6231 722.468 47.6316 720.82 48.3608C719.182 49.0805 717.198 49.4403 714.869 49.4403C712.605 49.4403 710.64 49.09 708.974 48.3892C707.317 47.6884 706.019 46.6657 705.082 45.321C704.154 43.9763 703.652 42.3381 703.576 40.4062H708.761C708.836 41.4195 709.149 42.2623 709.698 42.9347C710.247 43.607 710.962 44.1089 711.843 44.4403C712.733 44.7718 713.728 44.9375 714.826 44.9375C715.972 44.9375 716.976 44.767 717.837 44.4261C718.709 44.0758 719.39 43.5928 719.883 42.9773C720.375 42.3523 720.626 41.6231 720.636 40.7898C720.626 40.0322 720.404 39.4072 719.968 38.9148C719.532 38.4129 718.922 37.9962 718.136 37.6648C717.359 37.3239 716.45 37.0208 715.408 36.7557L712.099 35.9034C709.703 35.2879 707.809 34.3551 706.417 33.1051C705.034 31.8456 704.343 30.1742 704.343 28.0909C704.343 26.3769 704.807 24.8759 705.735 23.5881C706.673 22.3002 707.946 21.3011 709.556 20.5909C711.166 19.8712 712.989 19.5114 715.025 19.5114C717.089 19.5114 718.898 19.8712 720.451 20.5909C722.013 21.3011 723.24 22.2907 724.13 23.5597C725.02 24.8191 725.479 26.268 725.508 27.9062H720.437ZM740.526 19.9091H746.974L755.611 40.9886H755.952L764.588 19.9091H771.037V49H765.98V29.0142H765.71L757.67 48.9148H753.892L745.852 28.9716H745.582V49H740.526V19.9091ZM780.511 49H774.886L785.128 19.9091H791.634L801.889 49H796.264L788.494 25.875H788.267L780.511 49ZM780.696 37.5938H796.037V41.8267H780.696V37.5938ZM805.721 49V19.9091H816.63C818.865 19.9091 820.74 20.3258 822.255 21.1591C823.78 21.9924 824.93 23.1383 825.707 24.5966C826.493 26.0455 826.886 27.6932 826.886 29.5398C826.886 31.4053 826.493 33.0625 825.707 34.5114C824.921 35.9602 823.761 37.1013 822.227 37.9347C820.692 38.7585 818.803 39.1705 816.559 39.1705H809.329V34.8381H815.849C817.156 34.8381 818.226 34.6108 819.059 34.1562C819.892 33.7017 820.508 33.0767 820.906 32.2812C821.313 31.4858 821.516 30.572 821.516 29.5398C821.516 28.5076 821.313 27.5985 820.906 26.8125C820.508 26.0265 819.888 25.4157 819.045 24.9801C818.211 24.535 817.137 24.3125 815.82 24.3125H810.991V49H805.721Z" fill="#D9D9D9"/>
<path d="M136 0L166.311 17.5V52.5L136 70L105.689 52.5V17.5L136 0Z" fill="#D9D9D9"/>
<path d="M120.511 47.5106H116C114.895 47.5106 114 46.6152 114 45.5106V25C114 23.8954 114.895 23 116 23H120.511V41.383H128.553V47.5106H120.511Z" fill="#1E1E1E"/>
<path d="M122.809 23H135.205C140.509 23 145.596 25.1071 149.347 28.8579L159.464 38.9751C162.614 42.1249 160.383 47.5106 155.929 47.5106H131.234V41.383H145.438C148.111 41.383 149.449 38.1515 147.56 36.2617L145.787 34.4894L144.751 33.4536C141.001 29.7029 135.914 27.5957 130.609 27.5957H122.809V23Z" fill="#1E1E1E"/>
<mask id="mask0_510_3640" style="mask-type:alpha" maskUnits="userSpaceOnUse" x="0" y="0" width="70" height="70">
<rect width="70" height="70" rx="20" fill="#079F4D"/>
</mask>
<g mask="url(#mask0_510_3640)">
<rect width="70" height="70" rx="20" fill="#079F4D"/>
<rect x="79.08" y="18.4512" width="5" height="87.7943" transform="rotate(45 79.08 18.4512)" fill="#D9D9D9"/>
<rect x="74.5311" y="13" width="5" height="88.4323" transform="rotate(45 74.5311 13)" fill="#D9D9D9"/>
<path d="M10.418 12.8182H19.2646L25.3498 27.6477H25.6566L31.7418 12.8182H40.5884V39H33.6339V23.8636H33.4293L27.5998 38.7955H23.4066L17.5771 23.7614H17.3725V39H10.418V12.8182Z" fill="#D9D9D9"/>
</g>
</svg>
